<svg width="64" height="64" viewBox="0 0 64 64" fill="none" xmlns="http://www.w3.org/2000/svg">
<rect width="64" height="64" rx="17.0667" fill="#93109F"/>
<path d="M10.9528 45C10.695 45 10.463 44.9098 10.2568 44.7293C10.0506 44.5231 9.94746 44.2782 9.94746 43.9947V18.9387C9.94746 18.6551 10.0506 18.4231 10.2568 18.2427C10.463 18.0364 10.695 17.9333 10.9528 17.9333H29.8995C30.183 17.9333 30.4279 18.0364 30.6341 18.2427C30.8404 18.4231 30.9435 18.6551 30.9435 18.9387V23.5013C30.9435 23.7591 30.8404 23.9911 30.6341 24.1973C30.4279 24.4036 30.183 24.5067 29.8995 24.5067H17.9515V28.3347H29.0488C29.3324 28.3347 29.5772 28.4378 29.7835 28.644C29.9897 28.8244 30.0928 29.0564 30.0928 29.34V33.516C30.0928 33.7996 29.9897 34.0444 29.7835 34.2507C29.5772 34.4311 29.3324 34.5213 29.0488 34.5213H17.9515V38.4267H30.2088C30.4924 38.4267 30.7372 38.5298 30.9435 38.736C31.1497 38.9422 31.2528 39.1871 31.2528 39.4707V43.9947C31.2528 44.2782 31.1497 44.5231 30.9435 44.7293C30.7372 44.9098 30.4924 45 30.2088 45H10.9528ZM36.2145 45C35.9567 45 35.7247 44.9098 35.5185 44.7293C35.3123 44.5231 35.2092 44.2782 35.2092 43.9947V18.9387C35.2092 18.6551 35.3123 18.4231 35.5185 18.2427C35.7247 18.0364 35.9567 17.9333 36.2145 17.9333H42.6332C42.9167 17.9333 43.1616 18.0364 43.3678 18.2427C43.5741 18.4231 43.6772 18.6551 43.6772 18.9387V38.1173H54.8518C55.1354 38.1173 55.3803 38.2204 55.5865 38.4267C55.7927 38.6071 55.8958 38.8391 55.8958 39.1227V43.9947C55.8958 44.2782 55.7927 44.5231 55.5865 44.7293C55.3803 44.9098 55.1354 45 54.8518 45H36.2145Z" fill="white"/>
</svg>
